<mxfile host="65bd71144e">
    <diagram name="diagrams" id="KkIUwzJUt7jI7OvIfWEn">
        <mxGraphModel dx="1822" dy="951" grid="1" gridSize="10" guides="1" tooltips="1" connect="1" arrows="1" fold="1" page="1" pageScale="1" pageWidth="1169" pageHeight="1654" math="0" shadow="0">
            <root>
                <mxCell id="0"/>
                <mxCell id="1" parent="0"/>
                <mxCell id="kWsxFJqBNulunxzT2DrX-95" value="" style="group" parent="1" vertex="1" connectable="0">
                    <mxGeometry x="930" y="1008" width="232" height="140" as="geometry"/>
                </mxCell>
                <mxCell id="kWsxFJqBNulunxzT2DrX-96" value="" style="rounded=1;whiteSpace=wrap;html=1;fillColor=#f5f5f5;fontColor=#333333;strokeColor=#666666;dashed=1;dashPattern=8 8;" parent="kWsxFJqBNulunxzT2DrX-95" vertex="1">
                    <mxGeometry width="232" height="140" as="geometry"/>
                </mxCell>
                <mxCell id="kWsxFJqBNulunxzT2DrX-97" value="Private HF Space&amp;nbsp;" style="text;html=1;align=center;verticalAlign=middle;resizable=0;points=[];autosize=1;strokeColor=none;fillColor=none;fontStyle=1;fontSize=16;" parent="kWsxFJqBNulunxzT2DrX-95" vertex="1">
                    <mxGeometry x="42" y="4" width="150" height="30" as="geometry"/>
                </mxCell>
                <mxCell id="kWsxFJqBNulunxzT2DrX-94" value="" style="group" parent="1" vertex="1" connectable="0">
                    <mxGeometry x="482" y="1010" width="232" height="238" as="geometry"/>
                </mxCell>
                <mxCell id="kWsxFJqBNulunxzT2DrX-91" value="" style="rounded=1;whiteSpace=wrap;html=1;fillColor=#f5f5f5;fontColor=#333333;strokeColor=#666666;dashed=1;dashPattern=8 8;" parent="kWsxFJqBNulunxzT2DrX-94" vertex="1">
                    <mxGeometry width="232" height="238" as="geometry"/>
                </mxCell>
                <mxCell id="kWsxFJqBNulunxzT2DrX-93" value="Public/Local HF Space" style="text;html=1;align=center;verticalAlign=middle;resizable=0;points=[];autosize=1;strokeColor=none;fillColor=none;fontStyle=1;fontSize=16;" parent="kWsxFJqBNulunxzT2DrX-94" vertex="1">
                    <mxGeometry x="22" y="6.8" width="190" height="30" as="geometry"/>
                </mxCell>
                <mxCell id="kWsxFJqBNulunxzT2DrX-98" value="&lt;b&gt;&lt;font&gt;.env&lt;/font&gt;&lt;/b&gt;" style="rounded=1;whiteSpace=wrap;html=1;fontSize=16;fillColor=#b0e3e6;strokeColor=#0e8088;" parent="kWsxFJqBNulunxzT2DrX-94" vertex="1">
                    <mxGeometry x="47" y="174.53333333333333" width="140" height="54.54166666666667" as="geometry"/>
                </mxCell>
                <mxCell id="kWsxFJqBNulunxzT2DrX-41" value="" style="group" parent="1" vertex="1" connectable="0">
                    <mxGeometry x="111" y="12" width="240" height="480" as="geometry"/>
                </mxCell>
                <mxCell id="kWsxFJqBNulunxzT2DrX-6" value="" style="rounded=1;whiteSpace=wrap;html=1;fillColor=#f5f5f5;fontColor=#333333;strokeColor=#666666;dashed=1;dashPattern=8 8;" parent="kWsxFJqBNulunxzT2DrX-41" vertex="1">
                    <mxGeometry width="240" height="480" as="geometry"/>
                </mxCell>
                <mxCell id="kWsxFJqBNulunxzT2DrX-7" value="&lt;b style=&quot;forced-color-adjust: none; color: rgb(0, 0, 0); font-family: Helvetica; font-size: 12px; font-style: normal; font-variant-ligatures: normal; font-variant-caps: normal; letter-spacing: normal; orphans: 2; text-indent: 0px; text-transform: none; widows: 2; word-spacing: 0px; -webkit-text-stroke-width: 0px; white-space: normal; text-decoration-thickness: initial; text-decoration-style: initial; text-decoration-color: initial;&quot;&gt;&lt;font style=&quot;forced-color-adjust: none; font-size: 16px;&quot;&gt;Host Application&lt;/font&gt;&lt;/b&gt;" style="text;whiteSpace=wrap;html=1;align=center;" parent="kWsxFJqBNulunxzT2DrX-41" vertex="1">
                    <mxGeometry x="40" y="10" width="160" height="40" as="geometry"/>
                </mxCell>
                <mxCell id="kWsxFJqBNulunxzT2DrX-29" style="edgeStyle=orthogonalEdgeStyle;rounded=0;orthogonalLoop=1;jettySize=auto;html=1;exitX=1;exitY=0.25;exitDx=0;exitDy=0;entryX=0;entryY=0.25;entryDx=0;entryDy=0;" parent="1" source="kWsxFJqBNulunxzT2DrX-1" target="kWsxFJqBNulunxzT2DrX-4" edge="1">
                    <mxGeometry relative="1" as="geometry">
                        <mxPoint x="335" y="417" as="sourcePoint"/>
                        <mxPoint x="500" y="417" as="targetPoint"/>
                    </mxGeometry>
                </mxCell>
                <mxCell id="kWsxFJqBNulunxzT2DrX-30" value="Tool Call Request" style="edgeLabel;html=1;align=center;verticalAlign=middle;resizable=0;points=[];fontSize=12;" parent="kWsxFJqBNulunxzT2DrX-29" vertex="1" connectable="0">
                    <mxGeometry x="-0.3863" relative="1" as="geometry">
                        <mxPoint x="32" as="offset"/>
                    </mxGeometry>
                </mxCell>
                <mxCell id="kWsxFJqBNulunxzT2DrX-44" style="rounded=0;orthogonalLoop=1;jettySize=auto;html=1;exitX=0.75;exitY=0;exitDx=0;exitDy=0;entryX=0.75;entryY=1;entryDx=0;entryDy=0;" parent="1" source="kWsxFJqBNulunxzT2DrX-1" target="kWsxFJqBNulunxzT2DrX-17" edge="1">
                    <mxGeometry relative="1" as="geometry"/>
                </mxCell>
                <mxCell id="kWsxFJqBNulunxzT2DrX-45" value="Tool Result" style="edgeLabel;html=1;align=center;verticalAlign=middle;resizable=0;points=[];" parent="kWsxFJqBNulunxzT2DrX-44" vertex="1" connectable="0">
                    <mxGeometry x="0.1257" relative="1" as="geometry">
                        <mxPoint as="offset"/>
                    </mxGeometry>
                </mxCell>
                <mxCell id="kWsxFJqBNulunxzT2DrX-1" value="&lt;b&gt;&lt;font&gt;MCP Client&lt;/font&gt;&lt;/b&gt;" style="rounded=1;whiteSpace=wrap;html=1;fontSize=16;fillColor=#dae8fc;strokeColor=#6c8ebf;" parent="1" vertex="1">
                    <mxGeometry x="126" y="372" width="210" height="90" as="geometry"/>
                </mxCell>
                <mxCell id="kWsxFJqBNulunxzT2DrX-31" style="edgeStyle=orthogonalEdgeStyle;rounded=0;orthogonalLoop=1;jettySize=auto;html=1;exitX=1;exitY=0.25;exitDx=0;exitDy=0;entryX=0;entryY=0.25;entryDx=0;entryDy=0;" parent="1" source="kWsxFJqBNulunxzT2DrX-4" target="kWsxFJqBNulunxzT2DrX-5" edge="1">
                    <mxGeometry relative="1" as="geometry"/>
                </mxCell>
                <mxCell id="kWsxFJqBNulunxzT2DrX-32" value="HTTP Request" style="edgeLabel;html=1;align=center;verticalAlign=middle;resizable=0;points=[];" parent="kWsxFJqBNulunxzT2DrX-31" vertex="1" connectable="0">
                    <mxGeometry x="-0.4199" y="-3" relative="1" as="geometry">
                        <mxPoint x="29" y="-4" as="offset"/>
                    </mxGeometry>
                </mxCell>
                <mxCell id="kWsxFJqBNulunxzT2DrX-35" style="edgeStyle=orthogonalEdgeStyle;rounded=0;orthogonalLoop=1;jettySize=auto;html=1;exitX=0;exitY=0.75;exitDx=0;exitDy=0;entryX=1;entryY=0.75;entryDx=0;entryDy=0;" parent="1" source="kWsxFJqBNulunxzT2DrX-4" target="kWsxFJqBNulunxzT2DrX-1" edge="1">
                    <mxGeometry relative="1" as="geometry"/>
                </mxCell>
                <mxCell id="kWsxFJqBNulunxzT2DrX-36" value="MCP Response" style="edgeLabel;html=1;align=center;verticalAlign=middle;resizable=0;points=[];" parent="kWsxFJqBNulunxzT2DrX-35" vertex="1" connectable="0">
                    <mxGeometry x="0.4018" y="-1" relative="1" as="geometry">
                        <mxPoint x="27" as="offset"/>
                    </mxGeometry>
                </mxCell>
                <mxCell id="kWsxFJqBNulunxzT2DrX-4" value="&lt;font&gt;&lt;b&gt;MCP Server&lt;/b&gt;&lt;/font&gt;" style="rounded=1;whiteSpace=wrap;html=1;fontSize=16;fillColor=#dae8fc;strokeColor=#6c8ebf;" parent="1" vertex="1">
                    <mxGeometry x="501" y="372" width="210" height="90" as="geometry"/>
                </mxCell>
                <mxCell id="kWsxFJqBNulunxzT2DrX-33" style="edgeStyle=orthogonalEdgeStyle;rounded=0;orthogonalLoop=1;jettySize=auto;html=1;exitX=0;exitY=0.75;exitDx=0;exitDy=0;entryX=1;entryY=0.75;entryDx=0;entryDy=0;" parent="1" source="kWsxFJqBNulunxzT2DrX-5" target="kWsxFJqBNulunxzT2DrX-4" edge="1">
                    <mxGeometry relative="1" as="geometry"/>
                </mxCell>
                <mxCell id="kWsxFJqBNulunxzT2DrX-34" value="DS Response" style="edgeLabel;html=1;align=center;verticalAlign=middle;resizable=0;points=[];" parent="kWsxFJqBNulunxzT2DrX-33" vertex="1" connectable="0">
                    <mxGeometry x="0.4224" y="2" relative="1" as="geometry">
                        <mxPoint x="32" y="-3" as="offset"/>
                    </mxGeometry>
                </mxCell>
                <mxCell id="kWsxFJqBNulunxzT2DrX-5" value="&lt;font&gt;&lt;b&gt;Defect Solver API&lt;/b&gt;&lt;/font&gt;" style="rounded=1;whiteSpace=wrap;html=1;fontSize=16;fillColor=#f8cecc;strokeColor=#b85450;" parent="1" vertex="1">
                    <mxGeometry x="851" y="372" width="210" height="90" as="geometry"/>
                </mxCell>
                <mxCell id="kWsxFJqBNulunxzT2DrX-26" style="edgeStyle=orthogonalEdgeStyle;rounded=0;orthogonalLoop=1;jettySize=auto;html=1;entryX=0.5;entryY=0;entryDx=0;entryDy=0;" parent="1" source="kWsxFJqBNulunxzT2DrX-8" target="kWsxFJqBNulunxzT2DrX-17" edge="1">
                    <mxGeometry relative="1" as="geometry"/>
                </mxCell>
                <mxCell id="kWsxFJqBNulunxzT2DrX-8" value="" style="shape=image;verticalLabelPosition=bottom;labelBackgroundColor=default;verticalAlign=top;aspect=fixed;imageAspect=0;image=https://upload.wikimedia.org/wikipedia/commons/thumb/9/9a/Visual_Studio_Code_1.35_icon.svg/1200px-Visual_Studio_Code_1.35_icon.svg.png;" parent="1" vertex="1">
                    <mxGeometry x="181" y="82" width="40" height="40" as="geometry"/>
                </mxCell>
                <mxCell id="kWsxFJqBNulunxzT2DrX-25" style="edgeStyle=orthogonalEdgeStyle;rounded=0;orthogonalLoop=1;jettySize=auto;html=1;exitX=0.5;exitY=1;exitDx=0;exitDy=0;entryX=0.5;entryY=0;entryDx=0;entryDy=0;" parent="1" source="kWsxFJqBNulunxzT2DrX-10" target="kWsxFJqBNulunxzT2DrX-17" edge="1">
                    <mxGeometry relative="1" as="geometry"/>
                </mxCell>
                <mxCell id="kWsxFJqBNulunxzT2DrX-10" value="" style="shape=image;verticalLabelPosition=bottom;labelBackgroundColor=default;verticalAlign=top;aspect=fixed;imageAspect=0;image=https://uxwing.com/wp-content/themes/uxwing/download/brands-and-social-media/claude-ai-icon.png;" parent="1" vertex="1">
                    <mxGeometry x="241" y="80" width="42" height="42" as="geometry"/>
                </mxCell>
                <mxCell id="kWsxFJqBNulunxzT2DrX-24" style="edgeStyle=orthogonalEdgeStyle;rounded=0;orthogonalLoop=1;jettySize=auto;html=1;exitX=0.5;exitY=1;exitDx=0;exitDy=0;" parent="1" source="kWsxFJqBNulunxzT2DrX-11" target="kWsxFJqBNulunxzT2DrX-17" edge="1">
                    <mxGeometry relative="1" as="geometry"/>
                </mxCell>
                <mxCell id="kWsxFJqBNulunxzT2DrX-11" value="" style="shape=image;verticalLabelPosition=bottom;labelBackgroundColor=default;verticalAlign=top;aspect=fixed;imageAspect=0;image=https://upload.wikimedia.org/wikipedia/commons/thumb/9/9c/IntelliJ_IDEA_Icon.svg/800px-IntelliJ_IDEA_Icon.svg.png;" parent="1" vertex="1">
                    <mxGeometry x="126" y="82.5" width="40" height="40" as="geometry"/>
                </mxCell>
                <mxCell id="kWsxFJqBNulunxzT2DrX-23" style="edgeStyle=orthogonalEdgeStyle;rounded=0;orthogonalLoop=1;jettySize=auto;html=1;exitX=0.5;exitY=1;exitDx=0;exitDy=0;entryX=0.5;entryY=0;entryDx=0;entryDy=0;" parent="1" source="kWsxFJqBNulunxzT2DrX-15" target="kWsxFJqBNulunxzT2DrX-17" edge="1">
                    <mxGeometry relative="1" as="geometry"/>
                </mxCell>
                <mxCell id="kWsxFJqBNulunxzT2DrX-15" value="" style="shape=image;verticalLabelPosition=bottom;labelBackgroundColor=default;verticalAlign=top;aspect=fixed;imageAspect=0;image=https://windsurf.com/favicon_270.png;" parent="1" vertex="1">
                    <mxGeometry x="293" y="77" width="45" height="45" as="geometry"/>
                </mxCell>
                <mxCell id="kWsxFJqBNulunxzT2DrX-27" style="rounded=0;orthogonalLoop=1;jettySize=auto;html=1;exitX=0.25;exitY=1;exitDx=0;exitDy=0;entryX=0.25;entryY=0;entryDx=0;entryDy=0;" parent="1" source="kWsxFJqBNulunxzT2DrX-17" target="kWsxFJqBNulunxzT2DrX-1" edge="1">
                    <mxGeometry relative="1" as="geometry">
                        <mxPoint x="198" y="292" as="sourcePoint"/>
                        <mxPoint x="198" y="372" as="targetPoint"/>
                    </mxGeometry>
                </mxCell>
                <mxCell id="kWsxFJqBNulunxzT2DrX-28" value="Call Tools" style="edgeLabel;html=1;align=center;verticalAlign=middle;resizable=0;points=[];fontSize=12;" parent="kWsxFJqBNulunxzT2DrX-27" vertex="1" connectable="0">
                    <mxGeometry x="-0.1924" y="2" relative="1" as="geometry">
                        <mxPoint x="-1" y="2" as="offset"/>
                    </mxGeometry>
                </mxCell>
                <mxCell id="kWsxFJqBNulunxzT2DrX-17" value="&lt;b&gt;&lt;font&gt;Agent&lt;/font&gt;&lt;/b&gt;" style="rounded=1;whiteSpace=wrap;html=1;fontSize=16;fillColor=#ffe6cc;strokeColor=#d79b00;" parent="1" vertex="1">
                    <mxGeometry x="161" y="237" width="140" height="55" as="geometry"/>
                </mxCell>
                <mxCell id="kWsxFJqBNulunxzT2DrX-40" value="" style="group" parent="1" vertex="1" connectable="0">
                    <mxGeometry x="571" y="22" width="70" height="100" as="geometry"/>
                </mxCell>
                <mxCell id="kWsxFJqBNulunxzT2DrX-16" value="" style="shape=actor;whiteSpace=wrap;html=1;" parent="kWsxFJqBNulunxzT2DrX-40" vertex="1">
                    <mxGeometry width="70" height="100" as="geometry"/>
                </mxCell>
                <mxCell id="kWsxFJqBNulunxzT2DrX-37" value="User" style="text;html=1;align=center;verticalAlign=middle;resizable=0;points=[];autosize=1;strokeColor=none;fillColor=none;fontSize=16;fontStyle=1" parent="kWsxFJqBNulunxzT2DrX-40" vertex="1">
                    <mxGeometry x="5" y="60" width="60" height="30" as="geometry"/>
                </mxCell>
                <mxCell id="kWsxFJqBNulunxzT2DrX-42" style="edgeStyle=orthogonalEdgeStyle;rounded=0;orthogonalLoop=1;jettySize=auto;html=1;entryX=0.989;entryY=0.175;entryDx=0;entryDy=0;entryPerimeter=0;" parent="1" source="kWsxFJqBNulunxzT2DrX-37" target="kWsxFJqBNulunxzT2DrX-6" edge="1">
                    <mxGeometry relative="1" as="geometry"/>
                </mxCell>
                <mxCell id="kWsxFJqBNulunxzT2DrX-43" value="Prompt" style="edgeLabel;html=1;align=center;verticalAlign=middle;resizable=0;points=[];fontSize=12;" parent="kWsxFJqBNulunxzT2DrX-42" vertex="1" connectable="0">
                    <mxGeometry x="0.3541" y="1" relative="1" as="geometry">
                        <mxPoint x="52" y="-1" as="offset"/>
                    </mxGeometry>
                </mxCell>
                <mxCell id="kWsxFJqBNulunxzT2DrX-48" value="&lt;span style=&quot;font-size: 32px;&quot;&gt;Overview Diagram&lt;/span&gt;" style="text;html=1;align=center;verticalAlign=middle;resizable=0;points=[];autosize=1;fontStyle=1;" parent="1" vertex="1">
                    <mxGeometry x="813" y="32" width="290" height="50" as="geometry"/>
                </mxCell>
                <mxCell id="kWsxFJqBNulunxzT2DrX-49" value="&lt;span style=&quot;font-size: 32px;&quot;&gt;Authentication&amp;nbsp;&lt;/span&gt;&lt;span style=&quot;font-size: 32px; background-color: transparent; color: light-dark(rgb(0, 0, 0), rgb(255, 255, 255));&quot;&gt;Diagram:&amp;nbsp;&lt;/span&gt;&lt;div&gt;&lt;span style=&quot;font-size: 32px; background-color: transparent; color: light-dark(rgb(0, 0, 0), rgb(255, 255, 255));&quot;&gt;Public/Local Server&lt;/span&gt;&lt;/div&gt;" style="text;html=1;align=center;verticalAlign=middle;resizable=0;points=[];autosize=1;fontStyle=1;" parent="1" vertex="1">
                    <mxGeometry x="781" y="690" width="370" height="90" as="geometry"/>
                </mxCell>
                <mxCell id="kWsxFJqBNulunxzT2DrX-50" value="" style="group;labelBorderColor=none;" parent="1" vertex="1" connectable="0">
                    <mxGeometry x="32" y="690" width="240" height="480" as="geometry"/>
                </mxCell>
                <mxCell id="kWsxFJqBNulunxzT2DrX-51" value="" style="rounded=1;whiteSpace=wrap;html=1;fillColor=#f5f5f5;fontColor=#333333;strokeColor=#666666;dashed=1;dashPattern=8 8;" parent="kWsxFJqBNulunxzT2DrX-50" vertex="1">
                    <mxGeometry width="240" height="480" as="geometry"/>
                </mxCell>
                <mxCell id="kWsxFJqBNulunxzT2DrX-52" value="&lt;b style=&quot;forced-color-adjust: none; color: rgb(0, 0, 0); font-family: Helvetica; font-size: 12px; font-style: normal; font-variant-ligatures: normal; font-variant-caps: normal; letter-spacing: normal; orphans: 2; text-indent: 0px; text-transform: none; widows: 2; word-spacing: 0px; -webkit-text-stroke-width: 0px; white-space: normal; text-decoration-thickness: initial; text-decoration-style: initial; text-decoration-color: initial;&quot;&gt;&lt;font style=&quot;forced-color-adjust: none; font-size: 16px;&quot;&gt;Host Application&lt;/font&gt;&lt;/b&gt;" style="text;whiteSpace=wrap;html=1;align=center;" parent="kWsxFJqBNulunxzT2DrX-50" vertex="1">
                    <mxGeometry x="40" y="10" width="160" height="40" as="geometry"/>
                </mxCell>
                <mxCell id="kWsxFJqBNulunxzT2DrX-76" value="&lt;b&gt;&lt;font&gt;mcp.json&lt;/font&gt;&lt;/b&gt;" style="rounded=1;whiteSpace=wrap;html=1;fontSize=16;fillColor=#b0e3e6;strokeColor=#0e8088;" parent="kWsxFJqBNulunxzT2DrX-50" vertex="1">
                    <mxGeometry x="50" y="171" width="140" height="55" as="geometry"/>
                </mxCell>
                <mxCell id="kWsxFJqBNulunxzT2DrX-84" style="edgeStyle=orthogonalEdgeStyle;rounded=0;orthogonalLoop=1;jettySize=auto;html=1;exitX=1;exitY=0.5;exitDx=0;exitDy=0;entryX=0;entryY=0.5;entryDx=0;entryDy=0;" parent="1" source="kWsxFJqBNulunxzT2DrX-57" target="kWsxFJqBNulunxzT2DrX-62" edge="1">
                    <mxGeometry relative="1" as="geometry"/>
                </mxCell>
                <mxCell id="kWsxFJqBNulunxzT2DrX-85" value="&lt;span style=&quot;font-size: 12px; background-color: rgb(255, 217, 102);&quot;&gt;DEFECT_SOLVER_API_KEY&lt;/span&gt;" style="edgeLabel;html=1;align=center;verticalAlign=middle;resizable=0;points=[];labelBorderColor=default;textShadow=1;" parent="kWsxFJqBNulunxzT2DrX-84" vertex="1" connectable="0">
                    <mxGeometry x="-0.0809" y="-1" relative="1" as="geometry">
                        <mxPoint x="9" y="-2" as="offset"/>
                    </mxGeometry>
                </mxCell>
                <mxCell id="kWsxFJqBNulunxzT2DrX-57" value="&lt;b&gt;&lt;font&gt;MCP Client&lt;/font&gt;&lt;/b&gt;" style="rounded=1;whiteSpace=wrap;html=1;fontSize=16;fillColor=#dae8fc;strokeColor=#6c8ebf;" parent="1" vertex="1">
                    <mxGeometry x="47" y="1048" width="210" height="90" as="geometry"/>
                </mxCell>
                <mxCell id="kWsxFJqBNulunxzT2DrX-86" style="edgeStyle=orthogonalEdgeStyle;rounded=0;orthogonalLoop=1;jettySize=auto;html=1;exitX=1;exitY=0.25;exitDx=0;exitDy=0;entryX=0;entryY=0.25;entryDx=0;entryDy=0;" parent="1" source="kWsxFJqBNulunxzT2DrX-62" target="kWsxFJqBNulunxzT2DrX-65" edge="1">
                    <mxGeometry relative="1" as="geometry"/>
                </mxCell>
                <mxCell id="kWsxFJqBNulunxzT2DrX-90" value="DEFECT_SOLVER_API_KEY" style="edgeLabel;html=1;align=center;verticalAlign=middle;resizable=0;points=[];fontSize=12;labelBorderColor=default;textShadow=1;labelBackgroundColor=#FFD966;" parent="kWsxFJqBNulunxzT2DrX-86" vertex="1" connectable="0">
                    <mxGeometry x="-0.1808" y="1" relative="1" as="geometry">
                        <mxPoint x="24" as="offset"/>
                    </mxGeometry>
                </mxCell>
                <mxCell id="kWsxFJqBNulunxzT2DrX-87" style="edgeStyle=orthogonalEdgeStyle;rounded=0;orthogonalLoop=1;jettySize=auto;html=1;exitX=1;exitY=0.75;exitDx=0;exitDy=0;entryX=0;entryY=0.75;entryDx=0;entryDy=0;" parent="1" source="kWsxFJqBNulunxzT2DrX-62" target="kWsxFJqBNulunxzT2DrX-65" edge="1">
                    <mxGeometry relative="1" as="geometry"/>
                </mxCell>
                <mxCell id="kWsxFJqBNulunxzT2DrX-89" value="HF_TOKEN" style="edgeLabel;html=1;align=center;verticalAlign=middle;resizable=0;points=[];fontSize=12;labelBorderColor=default;textShadow=1;labelBackgroundColor=#FFD966;" parent="kWsxFJqBNulunxzT2DrX-87" vertex="1" connectable="0">
                    <mxGeometry x="-0.1684" y="1" relative="1" as="geometry">
                        <mxPoint x="23" as="offset"/>
                    </mxGeometry>
                </mxCell>
                <mxCell id="kWsxFJqBNulunxzT2DrX-62" value="&lt;font&gt;&lt;span&gt;MCP Server&lt;/span&gt;&lt;/font&gt;" style="rounded=1;whiteSpace=wrap;html=1;fontSize=16;fillColor=#dae8fc;strokeColor=#6c8ebf;fontStyle=1" parent="1" vertex="1">
                    <mxGeometry x="494" y="1048" width="210" height="90" as="geometry"/>
                </mxCell>
                <mxCell id="kWsxFJqBNulunxzT2DrX-65" value="&lt;font&gt;&lt;b&gt;Defect Solver API&lt;/b&gt;&lt;/font&gt;" style="rounded=1;whiteSpace=wrap;html=1;fontSize=16;fillColor=#f8cecc;strokeColor=#b85450;" parent="1" vertex="1">
                    <mxGeometry x="943" y="1048" width="210" height="90" as="geometry"/>
                </mxCell>
                <mxCell id="kWsxFJqBNulunxzT2DrX-66" style="edgeStyle=orthogonalEdgeStyle;rounded=0;orthogonalLoop=1;jettySize=auto;html=1;entryX=0.5;entryY=0;entryDx=0;entryDy=0;" parent="1" source="kWsxFJqBNulunxzT2DrX-67" target="kWsxFJqBNulunxzT2DrX-76" edge="1">
                    <mxGeometry relative="1" as="geometry"/>
                </mxCell>
                <mxCell id="kWsxFJqBNulunxzT2DrX-67" value="" style="shape=image;verticalLabelPosition=bottom;labelBackgroundColor=default;verticalAlign=top;aspect=fixed;imageAspect=0;image=https://upload.wikimedia.org/wikipedia/commons/thumb/9/9a/Visual_Studio_Code_1.35_icon.svg/1200px-Visual_Studio_Code_1.35_icon.svg.png;" parent="1" vertex="1">
                    <mxGeometry x="102" y="758" width="40" height="40" as="geometry"/>
                </mxCell>
                <mxCell id="kWsxFJqBNulunxzT2DrX-68" style="edgeStyle=orthogonalEdgeStyle;rounded=0;orthogonalLoop=1;jettySize=auto;html=1;exitX=0.5;exitY=1;exitDx=0;exitDy=0;entryX=0.5;entryY=0;entryDx=0;entryDy=0;" parent="1" source="kWsxFJqBNulunxzT2DrX-69" target="kWsxFJqBNulunxzT2DrX-76" edge="1">
                    <mxGeometry relative="1" as="geometry"/>
                </mxCell>
                <mxCell id="kWsxFJqBNulunxzT2DrX-69" value="" style="shape=image;verticalLabelPosition=bottom;labelBackgroundColor=default;verticalAlign=top;aspect=fixed;imageAspect=0;image=https://uxwing.com/wp-content/themes/uxwing/download/brands-and-social-media/claude-ai-icon.png;" parent="1" vertex="1">
                    <mxGeometry x="162" y="756" width="42" height="42" as="geometry"/>
                </mxCell>
                <mxCell id="kWsxFJqBNulunxzT2DrX-70" style="edgeStyle=orthogonalEdgeStyle;rounded=0;orthogonalLoop=1;jettySize=auto;html=1;exitX=0.5;exitY=1;exitDx=0;exitDy=0;" parent="1" source="kWsxFJqBNulunxzT2DrX-71" target="kWsxFJqBNulunxzT2DrX-76" edge="1">
                    <mxGeometry relative="1" as="geometry"/>
                </mxCell>
                <mxCell id="kWsxFJqBNulunxzT2DrX-71" value="" style="shape=image;verticalLabelPosition=bottom;labelBackgroundColor=default;verticalAlign=top;aspect=fixed;imageAspect=0;image=https://upload.wikimedia.org/wikipedia/commons/thumb/9/9c/IntelliJ_IDEA_Icon.svg/800px-IntelliJ_IDEA_Icon.svg.png;" parent="1" vertex="1">
                    <mxGeometry x="47" y="758.5" width="40" height="40" as="geometry"/>
                </mxCell>
                <mxCell id="kWsxFJqBNulunxzT2DrX-72" style="edgeStyle=orthogonalEdgeStyle;rounded=0;orthogonalLoop=1;jettySize=auto;html=1;exitX=0.5;exitY=1;exitDx=0;exitDy=0;entryX=0.5;entryY=0;entryDx=0;entryDy=0;" parent="1" source="kWsxFJqBNulunxzT2DrX-73" target="kWsxFJqBNulunxzT2DrX-76" edge="1">
                    <mxGeometry relative="1" as="geometry"/>
                </mxCell>
                <mxCell id="kWsxFJqBNulunxzT2DrX-73" value="" style="shape=image;verticalLabelPosition=bottom;labelBackgroundColor=default;verticalAlign=top;aspect=fixed;imageAspect=0;image=https://windsurf.com/favicon_270.png;" parent="1" vertex="1">
                    <mxGeometry x="214" y="753" width="45" height="45" as="geometry"/>
                </mxCell>
                <mxCell id="kWsxFJqBNulunxzT2DrX-77" value="" style="group" parent="1" vertex="1" connectable="0">
                    <mxGeometry x="574" y="698" width="70" height="100" as="geometry"/>
                </mxCell>
                <mxCell id="kWsxFJqBNulunxzT2DrX-78" value="" style="shape=actor;whiteSpace=wrap;html=1;" parent="kWsxFJqBNulunxzT2DrX-77" vertex="1">
                    <mxGeometry width="70" height="100" as="geometry"/>
                </mxCell>
                <mxCell id="kWsxFJqBNulunxzT2DrX-79" value="User" style="text;html=1;align=center;verticalAlign=middle;resizable=0;points=[];autosize=1;strokeColor=none;fillColor=none;fontSize=16;fontStyle=1" parent="kWsxFJqBNulunxzT2DrX-77" vertex="1">
                    <mxGeometry x="5" y="60" width="60" height="30" as="geometry"/>
                </mxCell>
                <mxCell id="kWsxFJqBNulunxzT2DrX-80" style="edgeStyle=orthogonalEdgeStyle;rounded=0;orthogonalLoop=1;jettySize=auto;html=1;entryX=0.989;entryY=0.175;entryDx=0;entryDy=0;entryPerimeter=0;" parent="1" source="kWsxFJqBNulunxzT2DrX-79" target="kWsxFJqBNulunxzT2DrX-51" edge="1">
                    <mxGeometry relative="1" as="geometry"/>
                </mxCell>
                <mxCell id="kWsxFJqBNulunxzT2DrX-81" value="DEFECT_SOLVER_API_KEY" style="edgeLabel;html=1;align=center;verticalAlign=middle;resizable=0;points=[];fontSize=12;labelBackgroundColor=#FFD966;textShadow=1;labelBorderColor=default;" parent="kWsxFJqBNulunxzT2DrX-80" vertex="1" connectable="0">
                    <mxGeometry x="0.3541" y="1" relative="1" as="geometry">
                        <mxPoint x="52" y="-1" as="offset"/>
                    </mxGeometry>
                </mxCell>
                <mxCell id="kWsxFJqBNulunxzT2DrX-82" style="edgeStyle=orthogonalEdgeStyle;rounded=0;orthogonalLoop=1;jettySize=auto;html=1;exitX=0.5;exitY=1;exitDx=0;exitDy=0;" parent="1" source="kWsxFJqBNulunxzT2DrX-76" target="kWsxFJqBNulunxzT2DrX-57" edge="1">
                    <mxGeometry relative="1" as="geometry"/>
                </mxCell>
                <mxCell id="kWsxFJqBNulunxzT2DrX-83" value="&lt;div&gt;&lt;span style=&quot;color: light-dark(rgb(0, 0, 0), rgb(255, 255, 255));&quot;&gt;DEFECT_SOLVER_API_KEY&lt;/span&gt;&lt;/div&gt;" style="edgeLabel;html=1;align=center;verticalAlign=middle;resizable=0;points=[];fontSize=12;labelBorderColor=default;whiteSpace=wrap;labelBackgroundColor=#FFD966;textShadow=1;" parent="kWsxFJqBNulunxzT2DrX-82" vertex="1" connectable="0">
                    <mxGeometry x="-0.2904" y="-2" relative="1" as="geometry">
                        <mxPoint y="16" as="offset"/>
                    </mxGeometry>
                </mxCell>
                <mxCell id="kWsxFJqBNulunxzT2DrX-99" style="edgeStyle=orthogonalEdgeStyle;rounded=0;orthogonalLoop=1;jettySize=auto;html=1;exitX=0.5;exitY=0;exitDx=0;exitDy=0;entryX=0.5;entryY=1;entryDx=0;entryDy=0;" parent="1" source="kWsxFJqBNulunxzT2DrX-98" target="kWsxFJqBNulunxzT2DrX-62" edge="1">
                    <mxGeometry relative="1" as="geometry"/>
                </mxCell>
                <mxCell id="kWsxFJqBNulunxzT2DrX-100" value="&lt;span style=&quot;font-size: 12px; background-color: rgb(255, 217, 102);&quot;&gt;HF_TOKEN&lt;/span&gt;" style="edgeLabel;html=1;align=center;verticalAlign=middle;resizable=0;points=[];labelBorderColor=default;textShadow=1;" parent="kWsxFJqBNulunxzT2DrX-99" vertex="1" connectable="0">
                    <mxGeometry x="-0.1522" y="-2" relative="1" as="geometry">
                        <mxPoint y="-2" as="offset"/>
                    </mxGeometry>
                </mxCell>
                <mxCell id="kWsxFJqBNulunxzT2DrX-101" value="" style="group" parent="1" vertex="1" connectable="0">
                    <mxGeometry x="918" y="1758" width="232" height="140" as="geometry"/>
                </mxCell>
                <mxCell id="kWsxFJqBNulunxzT2DrX-102" value="" style="rounded=1;whiteSpace=wrap;html=1;fillColor=#f5f5f5;fontColor=#333333;strokeColor=#666666;dashed=1;dashPattern=8 8;" parent="kWsxFJqBNulunxzT2DrX-101" vertex="1">
                    <mxGeometry width="232" height="140" as="geometry"/>
                </mxCell>
                <mxCell id="kWsxFJqBNulunxzT2DrX-103" value="Private HF Space&amp;nbsp;" style="text;html=1;align=center;verticalAlign=middle;resizable=0;points=[];autosize=1;strokeColor=none;fillColor=none;fontStyle=1;fontSize=16;" parent="kWsxFJqBNulunxzT2DrX-101" vertex="1">
                    <mxGeometry x="42" y="4" width="150" height="30" as="geometry"/>
                </mxCell>
                <mxCell id="kWsxFJqBNulunxzT2DrX-104" value="" style="group" parent="1" vertex="1" connectable="0">
                    <mxGeometry x="470" y="1758" width="232" height="240" as="geometry"/>
                </mxCell>
                <mxCell id="kWsxFJqBNulunxzT2DrX-105" value="" style="rounded=1;whiteSpace=wrap;html=1;fillColor=#f5f5f5;fontColor=#333333;strokeColor=#666666;dashed=1;dashPattern=8 8;" parent="kWsxFJqBNulunxzT2DrX-104" vertex="1">
                    <mxGeometry width="232" height="240" as="geometry"/>
                </mxCell>
                <mxCell id="kWsxFJqBNulunxzT2DrX-106" value="Private HF Space" style="text;html=1;align=center;verticalAlign=middle;resizable=0;points=[];autosize=1;strokeColor=none;fillColor=none;fontStyle=1;fontSize=16;" parent="kWsxFJqBNulunxzT2DrX-104" vertex="1">
                    <mxGeometry x="42" y="6.857142857142857" width="150" height="30" as="geometry"/>
                </mxCell>
                <mxCell id="kWsxFJqBNulunxzT2DrX-107" value="&lt;b&gt;&lt;font&gt;.env&lt;/font&gt;&lt;/b&gt;" style="rounded=1;whiteSpace=wrap;html=1;fontSize=16;fillColor=#b0e3e6;strokeColor=#0e8088;" parent="kWsxFJqBNulunxzT2DrX-104" vertex="1">
                    <mxGeometry x="47" y="176" width="140" height="55" as="geometry"/>
                </mxCell>
                <mxCell id="kWsxFJqBNulunxzT2DrX-108" value="&lt;span style=&quot;font-size: 32px;&quot;&gt;Authentication&amp;nbsp;&lt;/span&gt;&lt;span style=&quot;font-size: 32px; background-color: transparent; color: light-dark(rgb(0, 0, 0), rgb(255, 255, 255));&quot;&gt;Diagram:&amp;nbsp;&lt;/span&gt;&lt;div&gt;&lt;span style=&quot;font-size: 32px; background-color: transparent; color: light-dark(rgb(0, 0, 0), rgb(255, 255, 255));&quot;&gt;Private Server&lt;/span&gt;&lt;/div&gt;" style="text;html=1;align=center;verticalAlign=middle;resizable=0;points=[];autosize=1;fontStyle=1;" parent="1" vertex="1">
                    <mxGeometry x="769" y="1440" width="370" height="90" as="geometry"/>
                </mxCell>
                <mxCell id="kWsxFJqBNulunxzT2DrX-109" value="" style="group;labelBorderColor=none;" parent="1" vertex="1" connectable="0">
                    <mxGeometry x="20" y="1440" width="240" height="480" as="geometry"/>
                </mxCell>
                <mxCell id="kWsxFJqBNulunxzT2DrX-110" value="" style="rounded=1;whiteSpace=wrap;html=1;fillColor=#f5f5f5;fontColor=#333333;strokeColor=#666666;dashed=1;dashPattern=8 8;" parent="kWsxFJqBNulunxzT2DrX-109" vertex="1">
                    <mxGeometry width="240" height="480" as="geometry"/>
                </mxCell>
                <mxCell id="kWsxFJqBNulunxzT2DrX-111" value="&lt;b style=&quot;forced-color-adjust: none; color: rgb(0, 0, 0); font-family: Helvetica; font-size: 12px; font-style: normal; font-variant-ligatures: normal; font-variant-caps: normal; letter-spacing: normal; orphans: 2; text-indent: 0px; text-transform: none; widows: 2; word-spacing: 0px; -webkit-text-stroke-width: 0px; white-space: normal; text-decoration-thickness: initial; text-decoration-style: initial; text-decoration-color: initial;&quot;&gt;&lt;font style=&quot;forced-color-adjust: none; font-size: 16px;&quot;&gt;Host Application&lt;/font&gt;&lt;/b&gt;" style="text;whiteSpace=wrap;html=1;align=center;" parent="kWsxFJqBNulunxzT2DrX-109" vertex="1">
                    <mxGeometry x="40" y="10" width="160" height="40" as="geometry"/>
                </mxCell>
                <mxCell id="kWsxFJqBNulunxzT2DrX-112" value="&lt;b&gt;&lt;font&gt;mcp.json&lt;/font&gt;&lt;/b&gt;" style="rounded=1;whiteSpace=wrap;html=1;fontSize=16;fillColor=#b0e3e6;strokeColor=#0e8088;" parent="kWsxFJqBNulunxzT2DrX-109" vertex="1">
                    <mxGeometry x="50" y="171" width="140" height="55" as="geometry"/>
                </mxCell>
                <mxCell id="kWsxFJqBNulunxzT2DrX-113" style="edgeStyle=orthogonalEdgeStyle;rounded=0;orthogonalLoop=1;jettySize=auto;html=1;exitX=1;exitY=0.25;exitDx=0;exitDy=0;entryX=0;entryY=0.25;entryDx=0;entryDy=0;" parent="1" source="kWsxFJqBNulunxzT2DrX-115" target="kWsxFJqBNulunxzT2DrX-120" edge="1">
                    <mxGeometry relative="1" as="geometry"/>
                </mxCell>
                <mxCell id="kWsxFJqBNulunxzT2DrX-114" value="&lt;span style=&quot;background-color: rgb(255, 217, 102);&quot;&gt;DEFECT_SOLVER_API_KEY&lt;/span&gt;" style="edgeLabel;html=1;align=center;verticalAlign=middle;resizable=0;points=[];labelBorderColor=default;textShadow=1;fontSize=12;" parent="kWsxFJqBNulunxzT2DrX-113" vertex="1" connectable="0">
                    <mxGeometry x="-0.0809" y="-1" relative="1" as="geometry">
                        <mxPoint x="9" y="-2" as="offset"/>
                    </mxGeometry>
                </mxCell>
                <mxCell id="2" style="edgeStyle=none;html=1;exitX=1;exitY=0.75;exitDx=0;exitDy=0;entryX=0;entryY=0.75;entryDx=0;entryDy=0;" edge="1" parent="1" source="kWsxFJqBNulunxzT2DrX-115" target="kWsxFJqBNulunxzT2DrX-120">
                    <mxGeometry relative="1" as="geometry"/>
                </mxCell>
                <mxCell id="3" value="&lt;span style=&quot;color: rgb(63, 63, 63); font-size: 12px; background-color: rgb(255, 217, 102);&quot;&gt;HF_TOKEN_1&lt;/span&gt;" style="edgeLabel;html=1;align=center;verticalAlign=middle;resizable=0;points=[];labelBorderColor=default;textShadow=1;" vertex="1" connectable="0" parent="2">
                    <mxGeometry x="-0.2794" relative="1" as="geometry">
                        <mxPoint x="30" as="offset"/>
                    </mxGeometry>
                </mxCell>
                <mxCell id="kWsxFJqBNulunxzT2DrX-115" value="&lt;b&gt;&lt;font&gt;MCP Client&lt;/font&gt;&lt;/b&gt;" style="rounded=1;whiteSpace=wrap;html=1;fontSize=16;fillColor=#dae8fc;strokeColor=#6c8ebf;" parent="1" vertex="1">
                    <mxGeometry x="35" y="1798" width="210" height="90" as="geometry"/>
                </mxCell>
                <mxCell id="kWsxFJqBNulunxzT2DrX-116" style="edgeStyle=orthogonalEdgeStyle;rounded=0;orthogonalLoop=1;jettySize=auto;html=1;exitX=1;exitY=0.25;exitDx=0;exitDy=0;entryX=0;entryY=0.25;entryDx=0;entryDy=0;" parent="1" source="kWsxFJqBNulunxzT2DrX-120" target="kWsxFJqBNulunxzT2DrX-121" edge="1">
                    <mxGeometry relative="1" as="geometry"/>
                </mxCell>
                <mxCell id="kWsxFJqBNulunxzT2DrX-117" value="DEFECT_SOLVER_API_KEY" style="edgeLabel;html=1;align=center;verticalAlign=middle;resizable=0;points=[];fontSize=12;labelBorderColor=default;textShadow=1;labelBackgroundColor=#FFD966;" parent="kWsxFJqBNulunxzT2DrX-116" vertex="1" connectable="0">
                    <mxGeometry x="-0.1808" y="1" relative="1" as="geometry">
                        <mxPoint x="24" as="offset"/>
                    </mxGeometry>
                </mxCell>
                <mxCell id="kWsxFJqBNulunxzT2DrX-118" style="edgeStyle=orthogonalEdgeStyle;rounded=0;orthogonalLoop=1;jettySize=auto;html=1;exitX=1;exitY=0.75;exitDx=0;exitDy=0;entryX=0;entryY=0.75;entryDx=0;entryDy=0;" parent="1" source="kWsxFJqBNulunxzT2DrX-120" target="kWsxFJqBNulunxzT2DrX-121" edge="1">
                    <mxGeometry relative="1" as="geometry"/>
                </mxCell>
                <mxCell id="kWsxFJqBNulunxzT2DrX-119" value="HF_TOKEN_2" style="edgeLabel;html=1;align=center;verticalAlign=middle;resizable=0;points=[];fontSize=12;labelBorderColor=default;textShadow=1;labelBackgroundColor=#FFD966;" parent="kWsxFJqBNulunxzT2DrX-118" vertex="1" connectable="0">
                    <mxGeometry x="-0.1684" y="1" relative="1" as="geometry">
                        <mxPoint x="23" as="offset"/>
                    </mxGeometry>
                </mxCell>
                <mxCell id="kWsxFJqBNulunxzT2DrX-120" value="&lt;font&gt;&lt;span&gt;MCP Server&lt;/span&gt;&lt;/font&gt;" style="rounded=1;whiteSpace=wrap;html=1;fontSize=16;fillColor=#dae8fc;strokeColor=#6c8ebf;fontStyle=1" parent="1" vertex="1">
                    <mxGeometry x="482" y="1798" width="210" height="90" as="geometry"/>
                </mxCell>
                <mxCell id="kWsxFJqBNulunxzT2DrX-121" value="&lt;font&gt;&lt;b&gt;Defect Solver API&lt;/b&gt;&lt;/font&gt;" style="rounded=1;whiteSpace=wrap;html=1;fontSize=16;fillColor=#f8cecc;strokeColor=#b85450;" parent="1" vertex="1">
                    <mxGeometry x="931" y="1798" width="210" height="90" as="geometry"/>
                </mxCell>
                <mxCell id="kWsxFJqBNulunxzT2DrX-122" style="edgeStyle=orthogonalEdgeStyle;rounded=0;orthogonalLoop=1;jettySize=auto;html=1;entryX=0.5;entryY=0;entryDx=0;entryDy=0;" parent="1" source="kWsxFJqBNulunxzT2DrX-123" target="kWsxFJqBNulunxzT2DrX-112" edge="1">
                    <mxGeometry relative="1" as="geometry"/>
                </mxCell>
                <mxCell id="kWsxFJqBNulunxzT2DrX-123" value="" style="shape=image;verticalLabelPosition=bottom;labelBackgroundColor=default;verticalAlign=top;aspect=fixed;imageAspect=0;image=https://upload.wikimedia.org/wikipedia/commons/thumb/9/9a/Visual_Studio_Code_1.35_icon.svg/1200px-Visual_Studio_Code_1.35_icon.svg.png;" parent="1" vertex="1">
                    <mxGeometry x="90" y="1508" width="40" height="40" as="geometry"/>
                </mxCell>
                <mxCell id="kWsxFJqBNulunxzT2DrX-124" style="edgeStyle=orthogonalEdgeStyle;rounded=0;orthogonalLoop=1;jettySize=auto;html=1;exitX=0.5;exitY=1;exitDx=0;exitDy=0;entryX=0.5;entryY=0;entryDx=0;entryDy=0;" parent="1" source="kWsxFJqBNulunxzT2DrX-125" target="kWsxFJqBNulunxzT2DrX-112" edge="1">
                    <mxGeometry relative="1" as="geometry"/>
                </mxCell>
                <mxCell id="kWsxFJqBNulunxzT2DrX-125" value="" style="shape=image;verticalLabelPosition=bottom;labelBackgroundColor=default;verticalAlign=top;aspect=fixed;imageAspect=0;image=https://uxwing.com/wp-content/themes/uxwing/download/brands-and-social-media/claude-ai-icon.png;" parent="1" vertex="1">
                    <mxGeometry x="150" y="1506" width="42" height="42" as="geometry"/>
                </mxCell>
                <mxCell id="kWsxFJqBNulunxzT2DrX-126" style="edgeStyle=orthogonalEdgeStyle;rounded=0;orthogonalLoop=1;jettySize=auto;html=1;exitX=0.5;exitY=1;exitDx=0;exitDy=0;" parent="1" source="kWsxFJqBNulunxzT2DrX-127" target="kWsxFJqBNulunxzT2DrX-112" edge="1">
                    <mxGeometry relative="1" as="geometry"/>
                </mxCell>
                <mxCell id="kWsxFJqBNulunxzT2DrX-127" value="" style="shape=image;verticalLabelPosition=bottom;labelBackgroundColor=default;verticalAlign=top;aspect=fixed;imageAspect=0;image=https://upload.wikimedia.org/wikipedia/commons/thumb/9/9c/IntelliJ_IDEA_Icon.svg/800px-IntelliJ_IDEA_Icon.svg.png;" parent="1" vertex="1">
                    <mxGeometry x="35" y="1508.5" width="40" height="40" as="geometry"/>
                </mxCell>
                <mxCell id="kWsxFJqBNulunxzT2DrX-128" style="edgeStyle=orthogonalEdgeStyle;rounded=0;orthogonalLoop=1;jettySize=auto;html=1;exitX=0.5;exitY=1;exitDx=0;exitDy=0;entryX=0.5;entryY=0;entryDx=0;entryDy=0;" parent="1" source="kWsxFJqBNulunxzT2DrX-129" target="kWsxFJqBNulunxzT2DrX-112" edge="1">
                    <mxGeometry relative="1" as="geometry"/>
                </mxCell>
                <mxCell id="kWsxFJqBNulunxzT2DrX-129" value="" style="shape=image;verticalLabelPosition=bottom;labelBackgroundColor=default;verticalAlign=top;aspect=fixed;imageAspect=0;image=https://windsurf.com/favicon_270.png;" parent="1" vertex="1">
                    <mxGeometry x="202" y="1503" width="45" height="45" as="geometry"/>
                </mxCell>
                <mxCell id="kWsxFJqBNulunxzT2DrX-130" value="" style="group" parent="1" vertex="1" connectable="0">
                    <mxGeometry x="562" y="1448" width="70" height="100" as="geometry"/>
                </mxCell>
                <mxCell id="kWsxFJqBNulunxzT2DrX-131" value="" style="shape=actor;whiteSpace=wrap;html=1;" parent="kWsxFJqBNulunxzT2DrX-130" vertex="1">
                    <mxGeometry width="70" height="100" as="geometry"/>
                </mxCell>
                <mxCell id="kWsxFJqBNulunxzT2DrX-132" value="User" style="text;html=1;align=center;verticalAlign=middle;resizable=0;points=[];autosize=1;strokeColor=none;fillColor=none;fontSize=16;fontStyle=1" parent="kWsxFJqBNulunxzT2DrX-130" vertex="1">
                    <mxGeometry x="5" y="60" width="60" height="30" as="geometry"/>
                </mxCell>
                <mxCell id="kWsxFJqBNulunxzT2DrX-133" style="edgeStyle=orthogonalEdgeStyle;rounded=0;orthogonalLoop=1;jettySize=auto;html=1;entryX=1.014;entryY=0.093;entryDx=0;entryDy=0;entryPerimeter=0;exitX=0.335;exitY=0.373;exitDx=0;exitDy=0;exitPerimeter=0;" parent="1" source="kWsxFJqBNulunxzT2DrX-131" target="kWsxFJqBNulunxzT2DrX-110" edge="1">
                    <mxGeometry relative="1" as="geometry"/>
                </mxCell>
                <mxCell id="kWsxFJqBNulunxzT2DrX-134" value="DEFECT_SOLVER_API_KEY" style="edgeLabel;html=1;align=center;verticalAlign=middle;resizable=0;points=[];fontSize=12;labelBackgroundColor=#FFD966;textShadow=1;labelBorderColor=default;" parent="kWsxFJqBNulunxzT2DrX-133" vertex="1" connectable="0">
                    <mxGeometry x="0.3541" y="1" relative="1" as="geometry">
                        <mxPoint x="52" y="-1" as="offset"/>
                    </mxGeometry>
                </mxCell>
                <mxCell id="kWsxFJqBNulunxzT2DrX-135" style="edgeStyle=orthogonalEdgeStyle;rounded=0;orthogonalLoop=1;jettySize=auto;html=1;exitX=0.5;exitY=1;exitDx=0;exitDy=0;" parent="1" source="kWsxFJqBNulunxzT2DrX-112" target="kWsxFJqBNulunxzT2DrX-115" edge="1">
                    <mxGeometry relative="1" as="geometry"/>
                </mxCell>
                <mxCell id="kWsxFJqBNulunxzT2DrX-136" value="&lt;div&gt;&lt;span style=&quot;color: light-dark(rgb(0, 0, 0), rgb(255, 255, 255));&quot;&gt;DEFECT_SOLVER_API_KEY&lt;/span&gt;&lt;/div&gt;" style="edgeLabel;html=1;align=center;verticalAlign=middle;resizable=0;points=[];fontSize=12;labelBorderColor=default;whiteSpace=wrap;labelBackgroundColor=#FFD966;textShadow=1;" parent="kWsxFJqBNulunxzT2DrX-135" vertex="1" connectable="0">
                    <mxGeometry x="-0.2904" y="-2" relative="1" as="geometry">
                        <mxPoint y="-4" as="offset"/>
                    </mxGeometry>
                </mxCell>
                <mxCell id="kWsxFJqBNulunxzT2DrX-142" value="&lt;span style=&quot;font-size: 12px; background-color: rgb(255, 217, 102);&quot;&gt;HF_TOKEN_1&lt;/span&gt;" style="edgeLabel;html=1;align=center;verticalAlign=middle;resizable=0;points=[];labelBorderColor=default;textShadow=1;" parent="kWsxFJqBNulunxzT2DrX-135" vertex="1" connectable="0">
                    <mxGeometry x="0.2974" y="-1" relative="1" as="geometry">
                        <mxPoint as="offset"/>
                    </mxGeometry>
                </mxCell>
                <mxCell id="kWsxFJqBNulunxzT2DrX-137" style="edgeStyle=orthogonalEdgeStyle;rounded=0;orthogonalLoop=1;jettySize=auto;html=1;exitX=0.5;exitY=0;exitDx=0;exitDy=0;entryX=0.5;entryY=1;entryDx=0;entryDy=0;" parent="1" source="kWsxFJqBNulunxzT2DrX-107" target="kWsxFJqBNulunxzT2DrX-120" edge="1">
                    <mxGeometry relative="1" as="geometry"/>
                </mxCell>
                <mxCell id="kWsxFJqBNulunxzT2DrX-138" value="&lt;span style=&quot;font-size: 12px; background-color: rgb(255, 217, 102);&quot;&gt;HF_TOKEN_2&lt;/span&gt;" style="edgeLabel;html=1;align=center;verticalAlign=middle;resizable=0;points=[];labelBorderColor=default;textShadow=1;" parent="kWsxFJqBNulunxzT2DrX-137" vertex="1" connectable="0">
                    <mxGeometry x="-0.1522" y="-2" relative="1" as="geometry">
                        <mxPoint y="-2" as="offset"/>
                    </mxGeometry>
                </mxCell>
                <mxCell id="kWsxFJqBNulunxzT2DrX-139" style="edgeStyle=orthogonalEdgeStyle;rounded=0;orthogonalLoop=1;jettySize=auto;html=1;exitX=0;exitY=0.75;exitDx=0;exitDy=0;entryX=1;entryY=0.171;entryDx=0;entryDy=0;entryPerimeter=0;" parent="1" source="kWsxFJqBNulunxzT2DrX-131" target="kWsxFJqBNulunxzT2DrX-110" edge="1">
                    <mxGeometry relative="1" as="geometry"/>
                </mxCell>
                <mxCell id="kWsxFJqBNulunxzT2DrX-140" value="&lt;span style=&quot;font-size: 12px; background-color: rgb(255, 217, 102);&quot;&gt;HF_TOKEN_1&lt;/span&gt;" style="edgeLabel;html=1;align=center;verticalAlign=middle;resizable=0;points=[];labelBorderColor=default;textShadow=1;" parent="kWsxFJqBNulunxzT2DrX-139" vertex="1" connectable="0">
                    <mxGeometry x="0.1645" y="2" relative="1" as="geometry">
                        <mxPoint x="34" y="-1" as="offset"/>
                    </mxGeometry>
                </mxCell>
            </root>
        </mxGraphModel>
    </diagram>
</mxfile>